# xmcd
#
# Track frame offsets:
#	150
#	12356
#	31763
#	52750
#	72503
#	85338
#	103379
#	121351
#	138562
#	157957
#	173381
#	191167
#	213139
#	231905
#
# Disc length: 3323 seconds
#
# Revision: 1
# Processed by: cddbd v1.5.2PL0 Copyright (c) Steve Scherf et al.
# Submitted via: audiograbber 1.83.01
#
DISCID=b80cf90e
DTITLE=Say Zuzu - Live In Germany [CD 2)
DYEAR=2004
DGENRE=
TTITLE0=Sugar Bowl
TTITLE1=Doldrums
TTITLE2=Buxton
TTITLE3=Colorado
TTITLE4=Glow
TTITLE5=Postcard
TTITLE6=The Apartment Song
TTITLE7=The Boxing Song
TTITLE8=Wish Me Well
TTITLE9=706 Union
TTITLE10=Gallant Forty-Twa
TTITLE11=Highway Signs
TTITLE12=The Twine Song
TTITLE13=Goin' Down The Road Feelin' Bad
EXTD=+ bonus DVD
EXTT0=
EXTT1=
EXTT2=
EXTT3=
EXTT4=
EXTT5=
EXTT6=
EXTT7=
EXTT8=
EXTT9=
EXTT10=
EXTT11=
EXTT12=
EXTT13=
PLAYORDER=
